# xmcd
#
# Track frame offsets: 
#        150
#        7982
#        29302
#        50443
#        73094
#        92736
#        122730
#        144601
#        166588
#        181152
#        204920
#        221171
#
# Disc length: 3187 seconds
#
# Revision: 0
# Processed by: cddbd v1.4PL0 Copyright (c) Steve Scherf et al.
# Submitted via: ExactAudioCopy v0.90b4
#
DISCID=a00c710c
DTITLE=Gary Graves - Love is a Dangerous Thing
DYEAR=2003
DGENRE=Acoustic
TTITLE0=Light A Candle (Intro)
TTITLE1=FK Disappears
TTITLE2=Hell'n'Heaven 24-7
TTITLE3=Liliana's Song
TTITLE4=Led Astray
TTITLE5=The Lost Lay
TTITLE6=Liberal Dinner Party
TTITLE7=Cyclone
TTITLE8=The Fog
TTITLE9=Super Ego Maniac
TTITLE10=Lookin' like the Nigger
TTITLE11=Love is a Dangerous Thing
EXTD=
EXTT0=
EXTT1=
EXTT2=
EXTT3=
EXTT4=
EXTT5=
EXTT6=
EXTT7=
EXTT8=
EXTT9=
EXTT10=
EXTT11=
PLAYORDER=
